             The.Way.Back.2010.720.BRRip.x264.DTS-mkv-Zen_Bud

Format                           : Matroska
File size                        : 4.85 GiB
Duration                         : 2h 13mn
Overall bit rate                 : 5 218 Kbps
Encoded date                     : UTC 2011-06-24 16:56:54
Writing application              : mkvmerge v4.8.0 ('I Got The...') built on May 24 2011 03:12:58
Writing library                  : libebml v1.2.0 + libmatroska v1.1.0

Video
ID                               : 1
Format                           : AVC
Format/Info                      : Advanced Video Codec
Format profile                   : Main@L3.1
Format settings, CABAC           : Yes
Format settings, ReFrames        : 4 frames
Codec ID                         : V_MPEG4/ISO/AVC
Duration                         : 2h 13mn
Bit rate                         : 3 707 Kbps
Width                            : 1 280 pixels
Height                           : 544 pixels
Display aspect ratio             : 2.35:1
Frame rate mode                  : Variable
Frame rate                       : 23.976 fps
Color space                      : YUV
Chroma subsampling               : 4:2:0
Bit depth                        : 8 bits
Scan type                        : Progressive
Bits/(Pixel*Frame)               : 0.222
Stream size                      : 3.35 GiB (69%)
Writing library                  : x264 core 112
Encoding settings                : cabac=1 / ref=2 / deblock=1:0:0 / analyse=0x1:0x111 
Color primaries                  : BT.709-5, BT.1361, IEC 61966-2-4, SMPTE RP177
Transfer characteristics         : BT.709-5, BT.1361
Matrix coefficients              : BT.709-5, BT.1361, IEC 61966-2-4 709, SMPTE RP177

Audio
ID                               : 2
Format                           : DTS
Format/Info                      : Digital Theater Systems
Codec ID                         : A_DTS
Duration                         : 2h 13mn
Bit rate mode                    : Constant
Bit rate                         : 1 510 Kbps
Channel(s)                       : 6 channels
Channel positions                : Front: L C R, Side: L R, LFE
Sampling rate                    : 48.0 KHz
Bit depth                        : 24 bits
Compression mode                 : Lossy
Stream size                      : 1.40 GiB (29%)

Text
ID                               : 3
Format                           : UTF-8
Codec ID                         : S_TEXT/UTF8
Codec ID/Info                    : UTF-8 Plain Text
Language                         : Swedish

Menu
00:00:00.000                     : en:00:00:00.000
00:02:14.968                     : en:00:02:14.968
00:12:47.517                     : en:00:12:47.475
00:22:49.410                     : en:00:22:49.326
00:33:29.424                     : en:00:33:29.382
00:45:12.376                     : en:00:45:12.376
00:55:41.713                     : en:00:55:41.672
01:07:05.813                     : en:01:07:05.772
01:16:34.006                     : en:01:16:34.006
01:29:37.539                     : en:01:29:37.455
01:39:41.142                     : en:01:39:41.142
01:48:29.294                     : en:01:48:29.294
01:56:42.496                     : en:01:56:42.454
02:06:01.929                     : en:02:06:01.929

======================================================================================

Siberian gulag escapees walk 4000 miles overland to freedom in India.

======================================================================================
 
http://leetleech.org/images/76221894444465957653.png
 
http://leetleech.org/images/00969684395997900320.png
 
http://leetleech.org/images/53085923696862329274.png
 
http://leetleech.org/images/66143960765249855013.png
 
http://leetleech.org/images/52442812445018907800.png
 
http://leetleech.org/images/81097320566831247250.png
 
http://leetleech.org/images/27398378391666114542.png
 
http://leetleech.org/images/34060259343443036214.png
